<svg xmlns="http://www.w3.org/2000/svg" width="357" height="357" fill="none" viewBox="0 0 357 357"><g clip-path="url(#a)"><g clip-path="url(#b)"><path fill="#000" d="M91.994 326.919-.09 234.834V96.707h100.455l.663-8.371 8.371 8.371h99.794v-8.371l8.371 8.371H318.02v-8.371l8.371 8.371L556.602 326.92z"/><path fill="#000" d="m200.821 326.919-92.084-92.085V96.707h100.456l.396-8.371 8.372 8.371H318.02v-8.371l8.371 8.371 81.62 81.621v148.591z"/><path fill="#000" d="m309.648 326.919-92.084-92.085V96.707H318.02l.646-8.371 8.371 8.371 35.578 35.578v194.634z"/><path fill="#c8ff32" stroke="#a2d518" stroke-width="8.371" d="M98.771 92.522V186.1H55.078v43.692H5.192V95.903l3.382-3.382zM316.426 92.522V186.1h-43.694v43.692h-49.886V95.903l3.382-3.382zM205.492 92.522V186.1H184.27l2.656 5.903 17.006 37.789h-92.019V95.903l3.381-3.382z"/></g><g filter="url(#c)"><mask id="d" width="320" height="146" x="-1" y="88" maskUnits="userSpaceOnUse" style="mask-type:alpha"><path fill="#c8ff32" stroke="#a2d518" stroke-width="8.371" d="M314.582 92.523v93.579h-43.694v43.692h-49.885V95.904l3.382-3.382zM205.491 92.523v93.579H184.27l2.656 5.903 17.006 37.789h-92.02V95.904l3.382-3.382zM96.928 92.523v93.579H53.233v43.692H3.348V95.904l3.382-3.382z"/></mask><g mask="url(#d)"><path fill="#fff" fill-opacity=".5" d="M68.57 57.767c-2.012 3.288-2.976 6.888-2.976 11.395 0 4.053.453 6.038 2.154 9.496.964 1.984 1.644 2.891 3.968 5.215 2.665 2.665 2.835 2.891 3.118 4.394 1.05 5.839 7.228 12.132 15.817 16.157 7.767 3.628 20.38 6.576 28.572 6.661 2.806.028 3.515-.057 3.742-.397.396-.652-.085-.765-4.394-1.134-10.091-.794-20.153-3.288-27.523-6.803-5.67-2.664-10.346-6.434-12.812-10.29-.964-1.558-2.154-4.42-1.928-4.676.085-.085 1.077.142 2.211.482 2.438.709 3.855.737 5.783.17 2.012-.595 3.26-1.956 3.458-3.798.17-1.871-.057-2.636-1.106-3.827-1.19-1.36-2.89-1.956-5.13-1.814-2.977.198-5.074 1.616-6.094 4.082-.284.68-.68 1.247-.908 1.247-.566 0-3.571-3.231-4.677-5.074-3.26-5.329-3.6-12.869-.906-19.473.566-1.36.935-2.58.85-2.693-.284-.454-.624-.255-1.219.68m15.051 22.875c1.333.397 2.778 2.012 2.778 3.146 0 2.211-1.757 3.515-4.818 3.487-2.552 0-5.103-1.134-5.103-2.268 0-1.417 1.333-3.203 2.92-3.968 1.616-.737 2.608-.822 4.223-.397M23.048 63.663c-1.786.567-2.41 1.53-2.41 3.741v1.53l-3.373.454C10.18 70.38.173 73.98-6.573 77.92l-1.786 1.05-3.26-.313c-1.785-.17-3.571-.255-3.968-.141-1.219.311-.142.963 2.296 1.388 1.219.199 2.268.426 2.324.51.085.086-.425.54-1.105 1.05-.709.481-1.984 1.53-2.863 2.352l-1.587 1.446-3.373.028c-2.211.028-3.487.142-3.714.369-.481.481.51.822 3.487 1.162 1.36.142 2.664.425 2.891.595.227.199.68 1.587 1.02 3.09.908 4.28.964 4.45 1.531 4.535.51.113.51-.085.397-2.835-.142-2.55-.397-3.77-1.19-5.64-.142-.312.396-.879 1.984-2.07 1.219-.878 2.693-1.87 3.316-2.182l1.106-.595-.199 3.118c-.198 3.033-.028 3.911.652 3.09.482-.568 1.19-3.346 1.417-5.585l.199-2.126 4.252-2.126c5.073-2.522 10.856-4.705 15.703-5.924 3.26-.822 7.398-1.445 7.398-1.105 0 .085-.198.623-.425 1.162-.567 1.417-.539 4.053.085 5.3.737 1.475 1.7 1.843 3.543 1.304.822-.255 2.012-.793 2.636-1.247 1.56-1.134 4.479-3.883 5.5-5.159l.85-1.077-1.021-2.012c-1.077-2.126-3.118-4.479-4.564-5.244-1.162-.567-2.863-.765-3.911-.425m3.231 1.785c.992.51 2.75 2.438 3.94 4.337l.935 1.446-1.502 1.417c-2.58 2.41-3.997 3.515-5.47 4.195-1.758.822-2.013.85-2.523.029-.992-1.616-.624-5.103.68-6.293.68-.595.709-1.219.142-1.956-.595-.794-.539-2.324.142-3.005.68-.68 2.494-.765 3.656-.17M343.038 78.63c-.482.283-2.381 1.643-4.195 3.004l-3.317 2.466-2.182-.992c-2.948-1.333-7.342-2.75-8.589-2.75-.652 0-1.191.199-1.531.567-.793.879-.17 1.87 3.884 6.123 2.012 2.126 3.599 3.996 3.543 4.195-.057.17-1.247 1.162-2.636 2.21-1.389 1.05-2.977 2.41-3.544 3.005-1.02 1.078-1.02 1.078-1.19 4.309-.283 5.3-2.438 11.877-5.386 16.383-3.94 6.066-10.828 12.671-18.424 17.716-3.43 2.296-4.309 3.175-3.997 3.997.397 1.02 3.458.198 11.508-3.09 5.811-2.381 14.627-7.341 20.494-11.565 5.953-4.28 11.707-10.346 13.918-14.711.368-.737.992-1.559 1.36-1.786.652-.453 1.049-1.473 2.438-6.831l.595-2.296 1.644-.283c3.061-.595 6.208-1.56 6.803-2.098.34-.312.595-.85.595-1.219 0-.85-.737-1.303-5.584-3.43-1.984-.878-3.741-1.728-3.883-1.842-.17-.17-.142-1.814.085-4.167.369-4.28.142-6.462-.709-7.086-.652-.482-.652-.482-1.7.17m.878 4.166c0 1.219-.113 3.345-.255 4.705l-.226 2.495.822.793c.481.425 2.352 1.418 4.138 2.183 3.345 1.446 4.393 2.012 4.138 2.268-.085.056-1.729.538-3.685.992-3.656.935-4.62 1.474-4.903 2.92-.482 2.295-1.418 6.093-1.644 6.547-.255.482-.312.453-.822-.284-.312-.453-1.276-2.154-2.155-3.798s-1.955-3.316-2.381-3.77c-.935-.907-2.04-.992-6.207-.34-2.976.454-5.102.539-5.102.199 0-.114 1.53-1.418 3.401-2.863 2.891-2.24 3.402-2.75 3.402-3.402 0-.992-.908-2.21-4.224-5.81-2.324-2.523-2.891-3.289-2.438-3.289.085 0 2.268.794 4.819 1.73l4.649 1.757 1.927-1.162c1.049-.624 2.891-1.871 4.025-2.721 1.162-.88 2.268-1.56 2.41-1.503.198.057.311 1.02.311 2.353m-10.062 19.133c-3.685 10.998-11.31 20.579-21.684 27.24-2.58 1.672-6.945 3.883-6.945 3.515 0-.057 1.474-1.333 3.26-2.863 4.138-3.487 8.163-7.738 10.374-10.97 3.43-5.017 5.612-11.026 5.839-16.185l.17-3.033 2.155-.028c1.19 0 3.316-.17 4.705-.369 1.417-.198 2.664-.255 2.778-.142.141.086-.17 1.389-.652 2.835m3.656.198c.34.652 1.191 2.07 1.871 3.147.709 1.077 1.276 2.041 1.276 2.126 0 .34-2.41 3.77-4.451 6.321-5.243 6.547-14.059 13.067-24.887 18.367-5.499 2.665-7.483 3.402-3.685 1.333 6.605-3.572 10.8-6.548 15.307-10.8 6.066-5.726 10.658-13.436 12.472-20.919.482-2.04.482-2.069.992-1.417.255.34.765 1.162 1.105 1.842M128.067 81.776c0 1.417 3.288 4.535 6.491 6.207 2.919 1.502 5.385 2.353 8.815 3.005 2.551.482 2.778.595 4.195 1.899 2.523 2.38 7.058 4.082 12.529 4.762 1.304.142 4.733.283 7.596.283h5.216l-.765 1.02c-.993 1.305-1.248 3.204-.596 4.224 1.644 2.495 6.293 1.814 10.743-1.559 2.041-1.53 3.033-2.976 3.033-4.422 0-1.02-.17-1.275-2.919-3.94-3.345-3.26-5.358-4.45-7.852-4.62-1.389-.113-1.701-.028-2.494.652-.794.652-.908.935-.908 2.126 0 .765.256 1.956.567 2.693.312.737.567 1.445.567 1.587 0 .425-10.034.312-13.039-.17-3.231-.482-7.171-1.842-8.843-3.033-1.332-.992-1.446-.822 1.247-1.786 2.806-.963 4.478-2.75 4.478-4.705 0-2.494-3.061-4.167-6.292-3.401-2.551.567-4.224 2.38-4.564 4.932-.085.595-.198 1.162-.283 1.247-.284.255-5.924-1.077-8.192-1.928-2.409-.935-5.867-3.09-7.143-4.478-.85-.879-1.587-1.162-1.587-.595m24.972 3.401c1.842.992-1.417 3.685-4.479 3.685-.878 0-.935-.057-.935-.935.028-1.134.567-2.155 1.446-2.637.822-.453 3.203-.51 3.968-.113m23.64 6.208c1.871.907 6.661 5.158 6.661 5.924 0 .737-2.75 3.089-4.762 4.081-2.154 1.078-4.45 1.276-4.96.454-.256-.368-.057-.879 1.02-2.466.737-1.106 1.332-2.183 1.332-2.41 0-.226-.453-.963-1.02-1.643-1.503-1.786-2.268-3.94-1.616-4.564.397-.425 1.729-.17 3.345.624M303.326 82.512c-.454 1.219 1.927 5.782 3.146 6.009.454.113.51-.028.369-.765-.397-1.956-1.9-5.046-2.637-5.358-.566-.283-.737-.255-.878.114M297.09 83.646c-.227.652.368 6.916.708 7.257a.56.56 0 0 0 .652.085c.397-.255.142-5.868-.311-7.087-.312-.793-.794-.935-1.049-.255M210.552 84.185c-.567.68-.142 1.587 1.899 4.28 1.53 2.013 2.097 2.551 2.749 2.608.851.113 1.304-.284 1.304-1.162 0-.539-2.353-4.139-3.543-5.443-.765-.793-1.871-.935-2.409-.283M17.634 86.736C4.68 89.089 2.015 98.528 11.766 107.57c6.576 6.066 17.744 11.536 26.134 12.783 3.175.454 7.88.199 10.261-.566 3.515-1.106 5.698-3.997 5.188-6.832-.794-4.28-6.293-8.503-13.578-10.374-4.563-1.162-11.905-1.276-12.273-.17-.142.425.425.51 5.187.879 4.79.368 8.362 1.275 11.905 3.004 4.393 2.154 6.944 4.989 6.944 7.71 0 2.891-3.855 4.904-9.467 4.904-9.269 0-22.024-5.698-29.507-13.181-3.543-3.543-4.79-5.754-4.79-8.645-.029-1.53.113-2.07.765-3.203 3.741-6.378 17.517-7.427 33.646-2.551 8.815 2.636 15.221 5.329 20.522 8.56 3.741 2.296 6.689 3.487 4.79 1.928-1.53-1.276-8.475-5.528-11.281-6.917-7.172-3.571-18.113-7-25.965-8.163-3.6-.51-9.807-.51-12.613 0M237.508 86.623c-3.345.567-5.669 2.267-7.001 5.13-.709 1.56-.822 2.126-.822 4.337 0 1.956.141 2.92.652 4.11 1.247 3.118 4.195 5.924 8.418 7.937 2.92 1.389 4.592 1.899 4.989 1.502.227-.227-.709-.822-3.232-2.069-6.746-3.345-9.637-6.86-9.609-11.735.029-4.025 2.551-6.888 7.002-7.993 2.239-.54 2.749-.85 2.126-1.248-.482-.311-.426-.311-2.523.029M200.489 90.138c-1.304 1.275-.765 3.514 1.219 5.3 2.948 2.665 6.293 1.701 5.442-1.559-.425-1.53-1.587-3.26-2.693-3.94-1.275-.765-3.118-.68-3.968.199"/><path fill="#fff" fill-opacity=".5" d="M316.45 89.939c-.057.113-.255 2.664-.425 5.64-.397 6.747-1.134 11.254-2.75 16.441-1.332 4.28-1.474 5.187-.879 5.187.822 0 2.098-2.211 3.43-5.952 1.077-2.977 1.559-5.443 1.843-9.695.425-5.895-.312-13.067-1.219-11.621M237.026 92.547c-1.786.992-2.381 1.9-2.381 3.487 0 1.757 1.162 3.855 3.146 5.725 1.446 1.333 2.807 2.013 2.807 1.389 0-.113-.681-.907-1.531-1.814-1.786-1.927-2.721-3.741-2.721-5.187 0-.879.226-1.247 1.275-2.24 2.013-1.898 1.673-2.664-.595-1.36M267.667 92.49c-2.239 1.077-3.599 3.288-4.081 6.661-.992 7.087 4.308 16.894 12.16 22.45 2.211 1.559 2.154 1.474 1.417 2.268-.907.963-.538 2.04.992 2.862 1.021.511 1.162.709 1.389 2.07.34 2.04-.142 4.478-1.36 6.973-.992 1.955-1.361 2.437-5.613 7.483-2.579 3.033-3.231 4.223-3.571 6.406-.567 3.458.793 6.009 4.45 8.362.794.481 3.515 1.842 6.094 2.976 6.094 2.721 6.831 3.118 8.532 4.393 1.786 1.304 2.835 3.232 3.26 5.811.453 2.721.17 5.074-1.049 9.014-.822 2.664-.964 3.401-.68 3.685.482.453.907-.142 2.012-2.806 1.446-3.458 1.758-5.244 1.644-8.731-.085-2.664-.226-3.401-.85-4.733-1.559-3.373-3.316-4.677-10.658-7.965-6.349-2.835-8.192-3.855-9.637-5.414-1.446-1.588-1.758-3.09-1.077-5.414.481-1.588 1.757-3.373 5.527-7.682 3.175-3.628 4.762-7.54 4.478-11.054-.113-1.078-.255-2.268-.34-2.58-.141-.482-.028-.652.539-.794 1.134-.283 1.871-1.162 1.871-2.267 0-.936 0-.964 2.636-1.871 9.58-3.345 17.347-10.148 18.311-16.043.822-5.131-2.438-8.476-8.192-8.419-3.118.028-5.981 1.049-9.722 3.458-1.701 1.077-3.232 1.928-3.402 1.843-.198-.057-1.02-1.276-1.871-2.722-3.826-6.434-9.524-9.977-13.209-8.22m4.848 2.466c2.324 1.162 3.968 2.863 6.264 6.35 1.19 1.814 2.409 3.515 2.749 3.77 1.021.85 2.211.623 4.167-.737 2.239-1.503 5.386-3.118 7.001-3.572 1.843-.482 4.819-.425 6.208.142 3.685 1.474 3.968 5.187.794 9.637-2.807 3.94-9.383 8.589-15.363 10.885-1.276.482-2.637.879-3.005.879-.935 0-5.357-3.09-7.653-5.329-3.402-3.345-6.01-7.455-7.455-11.679-.737-2.126-.737-6.15-.028-7.993 1.133-2.92 3.458-3.798 6.321-2.353M88.667 95.892c0 .736 2.353 3.032 4.592 4.506 2.976 1.928 5.81 2.863 10.658 3.458 2.211.284 3.174.171 3.174-.396 0-.454-.935-.822-3.968-1.559-5.386-1.333-9.099-2.92-12.103-5.273-1.73-1.36-2.353-1.53-2.353-.737M26.45 96.26c-2.297.34-4.508 1.474-5.216 2.636-.879 1.417-.794 3.43.226 5.017 1.814 2.891 7.058 5.952 12.557 7.341 2.665.681 7.143 1.077 7.427.624.283-.454-.114-.595-2.551-.935-6.661-.908-15.363-5.613-16.299-8.788-.482-1.559 0-2.437 1.843-3.344 1.19-.596 1.899-.709 5.102-.822 3.996-.142 6.406.198 11.508 1.53 6.35 1.673 13.86 4.961 18.821 8.249 3.373 2.211 7.342 6.094 8.504 8.277 1.53 2.863.964 5.64-1.587 7.823-5.13 4.394-15.647 5.556-28.317 3.09-6.406-1.248-8.476-1.985-20.04-7.2-1.475-.652-2.722-1.106-2.807-1.021-.425.397.397 1.134 3.062 2.693 5.527 3.288 12.868 5.953 19.926 7.228 10.857 2.013 19.729 1.503 25.823-1.502 2.721-1.361 4.422-2.749 5.47-4.507.653-1.134.766-1.644.766-3.458 0-1.786-.142-2.409-.85-3.827-1.163-2.324-5.443-6.576-8.9-8.872C50.428 99.576 34.81 94.927 26.448 96.26M141.729 99.123c-.34.425-.907 2.211-1.757 5.499l-.624 2.325-4.563 1.757c-5.244 2.013-5.868 2.353-5.868 3.118 0 .907 1.191 1.417 5.074 2.126 2.041.368 3.827.737 3.997.85.368.227.368 2.58-.029 6.576-.368 3.742-.255 4.054 1.531 4.054.624 0 4.989-1.077 9.666-2.41 4.705-1.303 9.41-2.579 10.516-2.834 2.353-.539 3.316-1.106 3.203-1.843-.057-.311-1.276-1.587-2.75-2.891s-4.592-4.393-6.916-6.888c-7.115-7.596-7.71-8.192-8.674-9.013-.963-.823-2.295-1.02-2.806-.426m5.244 5.244a601 601 0 0 0 6.038 6.406c1.474 1.531 2.721 2.92 2.778 3.062.113.255-1.304-.369-9.808-4.337-3.741-1.758-4.875-2.41-4.79-2.75 1.105-3.94 1.814-5.981 2.097-5.981.17 0 1.814 1.616 3.685 3.6m2.608 8.504c7.285 3.656 8.419 4.337 6.774 4.138-5.499-.68-14.399-2.523-17.233-3.571-1.021-.369-2.722-.851-3.827-1.049-1.077-.227-2.098-.482-2.239-.595-.142-.114.822-.709 2.126-1.276 1.275-.595 2.862-1.36 3.486-1.701l1.134-.595 1.417.567c.794.34 4.564 2.154 8.362 4.082m-6.803 3.203c2.013.51 12.642 2.551 13.436 2.551.737.028-.652.538-3.77 1.417-1.786.482-5.329 1.587-7.88 2.438-2.523.85-4.734 1.53-4.904 1.53-.312 0-.283-.992.199-6.604.085-1.049.283-1.899.453-1.899.142 0 1.276.255 2.466.567M217.95 99.604c-.595 1.106.907 3.997 2.352 4.564 1.531.567 2.126-1.247.993-3.09-1.134-1.899-2.75-2.608-3.345-1.474M196.889 103.602c-.737.765-.85 1.02-.708 1.899.198 1.19 1.36 2.551 2.664 3.089.51.227 1.672.397 2.579.397 1.361 0 1.758-.113 2.268-.652 1.843-1.984-1.134-5.584-4.62-5.584-1.106 0-1.474.142-2.183.851M211.402 106.407c-.397.794-.369 1.134.397 2.778.482.992 1.077 1.701 1.842 2.211 3.061 2.041 3.402-1.729.397-4.394-1.417-1.247-2.183-1.417-2.636-.595M1.789 109.866c-.397.595.198 2.863 1.275 5.017 1.7 3.373 5.386 7.483 5.386 5.981 0-.199-.907-1.729-2.013-3.43-1.105-1.672-2.494-4.138-3.118-5.471-.623-1.332-1.19-2.409-1.247-2.409s-.198.142-.283.312M248.421 111c-2.211 1.757-.992 4.875 2.041 5.272 3.118.369 4.337-3.628 1.616-5.301-1.191-.737-2.693-.737-3.657.029m2.948 1.672c.652.652.68.936.283 1.729-.198.34-.595.539-1.162.539-.68 0-.935-.17-1.247-.907-.453-1.134-.113-1.928.85-1.928.397 0 .964.255 1.276.567M221.805 112.87c-.681.652.34 2.494 1.927 3.486.765.482 1.077.539 1.559.284.879-.482.68-1.191-.794-2.637-1.247-1.218-2.211-1.644-2.692-1.133M192.751 114.939c-1.219.284-3.742 2.013-4.989 3.402l-.964 1.077-1.303-1.219c-.766-.765-1.758-1.361-2.466-1.559-1.73-.482-3.487.453-4.734 2.551-1.162 1.956-1.417 2.863-1.843 6.293-.595 5.073.369 9.637 3.685 17.574 2.013 4.847 2.977 5.442 5.131 3.118 5.215-5.528 11.196-14.768 12.925-19.927.879-2.636 1.191-5.641.766-7.228-.822-3.09-3.402-4.79-6.208-4.082m3.742 3.203c.793 1.077.935 3.77.311 6.151-.595 2.268-2.182 5.726-4.166 9.014-2.92 4.875-9.043 12.359-9.581 11.763-.142-.113-1.077-2.919-2.126-6.179-1.842-5.754-1.928-6.066-2.041-9.496-.17-4.053.142-6.264 1.219-8.447 1.219-2.494 2.891-2.692 4.422-.481l.793 1.133-.992 2.41c-1.644 4.053-1.87 8.248-.595 10.686 1.332 2.636 3.827 2.211 4.904-.85.765-2.183.68-7.002-.17-9.921l-.624-2.183.936-1.304c1.105-1.53 3.316-3.231 4.563-3.515 1.162-.255 2.41.227 3.147 1.219m-9.354 11.253c0 1.984-.114 2.977-.482 3.799-.454 1.02-.539 1.077-.936.68-.963-.964-.935-5.386.057-7.88l.51-1.247.397.963c.255.624.425 2.013.454 3.685M77.187 116.073c-.085.142.057.992.312 1.842.425 1.474.425 1.701-.028 3.062-.256.822-.85 2.126-1.304 2.919-.907 1.616-1.05 2.381-.397 2.381.51 0 1.956-1.927 2.863-3.826.964-2.013.907-3.657-.17-5.329-.88-1.417-.992-1.502-1.276-1.049"/><path fill="#fff" fill-opacity=".5" d="M262.537 119.9c-.113.255.453 1.02 1.559 2.069 1.559 1.474 1.729 1.729 1.729 2.806 0 2.183 1.247 2.154 1.984-.057.397-1.247.199-2.182-.737-3.401-1.19-1.587-4.138-2.494-4.535-1.417M258.03 120.977c-.68.51-.425.822 1.332 1.757 2.495 1.276 2.551 1.389 2.438 3.827-.085 1.955-.028 2.126.482 2.126.879 0 1.842-1.956 1.842-3.799 0-1.389-.085-1.615-1.077-2.579-1.474-1.502-3.883-2.126-5.017-1.332M305.537 123.302c-1.247 1.332-1.474 2.126-.652 2.126.538 0 2.608-2.381 2.608-3.005 0-.737-.794-.397-1.956.879M101.564 123.386c-1.276.425-1.417.567-1.502 1.417-.085.737.141 1.276 1.077 2.494 2.154 2.863 3.996 3.232 2.097.426-.567-.822-.935-1.559-.85-1.644.312-.312 3.657.765 5.584 1.785 5.669 2.977 9.552 9.099 8.504 13.351-.369 1.361-.766 2.069-1.191 2.069-.142 0-.68-.368-1.19-.85-2.381-2.069-5.471-2.551-6.491-1.021-.737 1.078.453 3.742 2.154 4.876 1.077.68 2.778.822 4.252.312l1.303-.454.964 2.041c1.843 3.827 2.324 7.426 1.446 10.686-.227.85-.425 1.928-.425 2.409l.028.851.539-.652c.68-.822 1.332-2.92 1.587-5.131.255-2.239-.482-5.754-1.871-8.9l-1.105-2.494.765-1.446c3.09-5.953-2.466-15.193-10.686-17.801-1.021-.34-2.041-.68-2.268-.737-.283-.085-.142-.312.51-.709.511-.311.879-.708.794-.907-.17-.538-2.466-.51-4.025.029m11.055 19.841c1.36.964 1.474 1.758.311 2.07-1.275.34-2.919-.454-3.571-1.758-.68-1.332-.68-1.332-.057-1.445.766-.17 2.098.255 3.317 1.133M254.855 127.667c-.765.595-2.267 2.125-3.316 3.401-2.211 2.636-3.6 3.713-4.847 3.713-.709 0-1.361-.538-4.11-3.373-3.373-3.486-4.28-4.138-6.151-4.45-1.531-.227-3.77.765-5.046 2.239-.538.624-1.757 2.636-2.721 4.479-.963 1.87-2.126 3.685-2.579 4.081-1.446 1.219-2.551.907-7.37-1.955-4.138-2.466-6.519-2.722-9.099-.992-2.097 1.388-3.004 4.251-1.785 5.612.878.964 1.303.765 1.247-.539-.057-1.36.623-2.381 2.041-3.146 1.899-1.02 3.713-.567 7.143 1.757 4.506 3.09 8.305 3.345 10.289.709.368-.482 1.502-2.579 2.551-4.62 1.474-3.005 2.098-3.912 2.92-4.479 2.069-1.389 3.344-.793 6.717 3.118 2.835 3.288 3.94 4.082 5.896 4.11 1.417 0 2.721-.567 4.167-1.871 1.814-1.644 6.519-7.653 6.519-8.305 0-.907-.907-.737-2.466.511M-17.77 132.003c-2.097.737-4.337 3.912-4.96 7.03-.17.85-.369 1.701-.425 1.899-.085.227-.539.142-1.616-.255-2.098-.85-5.386-.879-6.746-.057-3.742 2.155-1.19 5.726 8.248 11.537.567.34.992 1.105 1.644 2.863 1.531 4.223 3.969 8.673 4.762 8.673.255 0 2.551-1.105 5.102-2.437 5.386-2.807 4.706-2.721 10.857-1.389 4.733 1.02 8.702 1.077 10.374.198 3.061-1.587 1.502-4.847-3.288-6.888-1.162-.51-2.21-.992-2.324-1.077s.567-1.077 1.502-2.154c3.061-3.572 4.195-6.86 3.26-9.326-.794-2.069-2.721-2.636-5.868-1.7-2.239.652-6.434 2.919-9.609 5.215-1.502 1.077-2.863 1.984-3.004 1.984s-.255-1.445-.284-3.203c-.028-5.272-1.644-9.24-4.365-10.629-1.36-.681-1.956-.737-3.26-.284m2.665 2.041c.907.51 2.21 2.523 2.75 4.252.254.85.51 3.033.595 5.357.17 4.252.425 4.932 1.587 4.479.368-.142 2.608-1.588 5.017-3.203 4.762-3.203 8.107-4.762 10.29-4.762 1.757 0 2.295.652 2.125 2.636-.312 3.912-3.997 8.05-10.913 12.33-1.672 1.049-3.146 1.757-3.628 1.757-1.842 0-12.699-4.223-13.322-5.215-.652-1.02-1.049-5.839-.709-9.127.454-4.507 1.587-7.172 3.515-8.362 1.02-.624 1.757-.652 2.693-.142m-10.176 7.795 1.842.482.199 4.082c.113 2.267.17 4.138.113 4.166-.028.029-1.049-.566-2.268-1.332-2.92-1.899-6.122-5.017-6.122-6.009 0-1.757 2.636-2.353 6.236-1.389m30.584 12.387c2.24.992 3.685 2.069 4.195 3.061.426.794.397.879-.17 1.333-1.304 1.077-5.215 1.048-10.544-.029-1.616-.34-3.061-.708-3.175-.822-.141-.142 1.276-1.219 3.118-2.409 3.742-2.41 3.77-2.438 6.576-1.134m-21.23 1.191c1.955.765 4.28 1.644 5.187 1.927.879.283 1.616.595 1.616.709 0 .198-7.143 4.223-7.484 4.223-.283 0-2.352-4.308-2.976-6.179-.68-2.013-.737-2.438-.227-2.239.17.085 1.928.793 3.884 1.559M145.783 132.174c-1.049.652-2.126 2.182-3.147 4.45-.425.935-.793 1.729-.822 1.786-.028.028-.708-.341-1.53-.822-3.288-2.041-6.832-.936-6.832 2.154 0 2.154 3.43 6.207 7.058 8.362l2.07 1.219-2.495 1.303c-3.656 1.871-5.952 4.139-7.71 7.625-1.87 3.685-2.607 5.924-2.607 7.994 0 2.551.68 2.182 1.388-.709.851-3.43 3.799-8.532 6.151-10.601 1.304-1.134 4.309-2.75 7.342-3.912 1.304-.482 1.417-.595 1.417-1.474 0-.907-.113-.992-2.579-2.267-3.912-2.013-6.633-4.337-7.654-6.576-.566-1.304-.226-1.956 1.078-1.956 1.048 0 1.729.34 3.543 1.871 2.239 1.899 3.033 1.587 3.741-1.446.397-1.672 2.098-4.819 2.721-5.074.766-.283 1.389 1.162 1.503 3.43.085 1.446-.085 2.919-.51 4.904-.539 2.296-.596 2.891-.284 3.259.624.737 1.247.482 2.976-1.304 3.402-3.429 8.107-6.321 12.756-7.794 1.927-.624 2.693-.709 4.96-.624 2.239.057 2.693.028 2.693-.34 0-1.219-5.697-1.843-8.674-.964-2.806.822-10.204 4.96-10.884 6.066-.085.142-.34.283-.539.283-.255 0-.34-.737-.34-2.919.028-2.495-.057-3.061-.624-4.11-.623-1.191-2.04-2.325-2.891-2.325-.227 0-.793.227-1.275.511M70.724 133.477c-1.53.567-2.72 1.446-4.025 3.033-3.685 4.422-5.159 9.977-4.875 18.368.227 6.973 1.616 12.273 4.337 16.667 1.502 2.409 1.474 2.409 5.924 1.502 1.502-.312 2.891-.567 3.09-.567.17 0 .566.454.85.992.312.567 1.105 1.531 1.786 2.126 1.587 1.474 2.947 1.531 5.64.227 4.11-2.013 7.228-6.038 7.257-9.382.028-1.474.056-1.588.878-1.928 1.276-.538 4.847-4.252 6.435-6.661 1.814-2.75 2.579-4.847 2.749-7.512.199-2.721-.397-4.677-1.956-6.377-1.36-1.503-3.032-2.098-5.725-2.098-3.657 0-7.852 1.474-12.274 4.252l-1.786 1.134.057-3.458c.057-4.564-.595-6.747-2.608-8.759-1.842-1.842-3.6-2.324-5.754-1.559m3.118 2.806c.936.51 1.701 1.644 2.24 3.288.481 1.503.453 3.515-.057 8.617-.142 1.332-.085 1.729.312 2.183.85.935 1.87.68 4.421-1.021 4.65-3.089 8.164-4.563 11.622-4.847 2.948-.226 4.422.425 5.357 2.325.539 1.105.624 1.644.51 3.373-.226 3.628-2.409 7.313-6.519 11.054-2.012 1.843-2.04 1.843-3.6 1.843-1.757-.029-2.58.227-4.252 1.304-.623.397-1.247.708-1.388.708-.114 0-.567-.765-.992-1.7-.936-2.041-2.325-3.118-3.969-3.118-3.316 0-4.592 3.033-3.458 8.22.198 1.02.34 1.871.284 1.927-.17.199-5.67 1.758-6.151 1.758-.964 0-2.948-6.406-3.657-11.764-.482-3.741-.17-11.565.567-14.512.822-3.288 2.012-5.783 3.628-7.484 2.211-2.409 3.628-2.976 5.102-2.154m4.989 27.523c.255.369.68 1.531.935 2.58.369 1.474.624 1.956 1.163 2.211.765.34.567.453 3.798-1.729 1.304-.851 2.04-1.191 2.664-1.134.794.085.85.17.794 1.134-.085 1.53-.935 3.004-2.693 4.648-1.672 1.588-2.636 2.183-4.989 2.977-1.757.595-1.615.68-2.777-1.531-.964-1.871-1.814-5.301-1.814-7.341 0-1.389.113-1.786.708-2.381.794-.794 1.417-.652 2.211.566M40.026 138.466c-5.754.113-7.2.227-7.625.567-.68.567-9.637 12.5-10.204 13.634-.567 1.077-.368 2.069.51 2.665.34.226 1.588.595 2.75.85 3.345.68 3.401.68 3.401 1.19 0 .766-1.275 2.24-6.264 7.313-2.608 2.637-4.875 5.131-5.017 5.528-.595 1.757.397 2.409 4.535 2.948 2.154.283 2.948.482 3.232.878.51.709.51 2.637-.057 4.734-.567 2.183-3.798 8.957-6.151 12.897-2.58 4.309-2.778 4.762-2.381 5.159.652.652 1.389.227 4.507-2.608 5.726-5.244 6.264-5.697 11.706-10.232 8.107-6.747 9.213-7.852 9.213-9.269 0-1.191-.936-1.644-4.28-2.041-1.588-.199-2.948-.482-3.005-.652-.057-.142 2.21-2.523 5.074-5.244 5.215-4.989 10.09-10.176 11.054-11.735.68-1.134.68-2.579-.028-2.976-.312-.142-2.154-.284-4.138-.284-4.99 0-5.017.199.283-5.81 3.26-3.714 4.252-5.244 3.997-6.236-.34-1.389-1.162-1.474-11.112-1.276m8.957 2.069c0 .227-.85 1.389-1.899 2.58-1.077 1.19-2.778 3.174-3.855 4.365-1.984 2.268-2.607 3.6-2.182 4.705.425 1.106 1.672 1.417 5.272 1.219 1.927-.085 3.288-.057 3.401.113.086.171-.028.567-.283.936-.765 1.162-6.69 7.2-11.083 11.31-4.564 4.251-5.697 5.697-5.414 6.888.255.992 1.474 1.445 4.677 1.729 1.814.141 2.721.34 2.806.595.17.51-1.587 2.097-7.568 6.973-2.721 2.182-6.604 5.442-8.589 7.199-1.984 1.758-3.628 3.118-3.628 3.033 0-.113 1.19-2.466 2.665-5.272 1.474-2.778 2.948-5.782 3.288-6.689 1.219-3.288.992-6.633-.567-7.795-.454-.312-1.588-.624-3.118-.794-3.146-.368-3.685-.51-3.685-.907 0-.17 1.9-2.239 4.223-4.592 5.103-5.187 6.747-7.2 7.002-8.56.283-1.474-.397-1.984-3.43-2.721-1.417-.34-2.721-.737-2.92-.936-.283-.255.114-.963 1.9-3.486a262 262 0 0 0 4.535-6.548c1.247-1.842 2.41-3.43 2.58-3.486.17-.029 3.797-.114 8.078-.171 6.519-.056 7.794-.028 7.794.312M241.618 145.325c-1.502 2.155.879 7.71 4.451 10.318 2.097 1.559 3.061 1.616 4.762.312 2.381-1.814 3.94-4.961 3.94-7.994 0-2.947-1.843-3.798-4.677-2.154-.794.454-1.616 1.021-1.815 1.276-.34.397-.51.34-1.7-.652-1.729-1.417-2.353-1.729-3.543-1.729-.709 0-1.106.17-1.418.623m3.827 3.062c.935.765 1.984 1.417 2.296 1.417.34 0 1.332-.567 2.211-1.247 2.069-1.644 2.664-1.758 2.778-.511.311 3.118-3.288 7.682-5.443 6.888-.992-.396-2.863-2.862-3.543-4.705-.652-1.701-.765-3.26-.312-3.26.17 0 1.078.624 2.013 1.418M312.567 145.524c-3.77 1.19-6.747 3.741-7.965 6.774-.596 1.474-.652 2.07-.652 6.435 0 3.883-.085 5.074-.482 6.179-.284.737-.51 1.729-.51 2.183 0 .737.085.85.822.85.453 0 1.615-.198 2.607-.454 1.673-.425 1.928-.425 4.762.142 4.224.794 6.605.964 9.354.624 5.528-.709 8.759-3.572 9.694-8.674 1.049-5.669-3.231-11.99-9.58-14.059-2.098-.709-5.868-.709-8.05 0m8.532 2.494c3.486 1.644 5.527 3.884 6.519 7.115.68 2.211.709 3.061.085 5.272-.595 2.183-2.608 4.337-4.762 5.102-2.324.851-6.718.907-10.885.199-2.976-.511-3.741-.567-5.045-.312-.85.198-1.616.283-1.701.198-.057-.085.057-.51.312-.992.51-.992.567-2.296.312-6.434-.199-2.835-.142-3.288.425-4.791 2.041-5.357 9.241-7.965 14.74-5.357"/><path fill="#fff" fill-opacity=".5" d="M316.705 151.222c-.284.311-.737 1.218-.992 2.04-.34.993-.624 1.474-.879 1.389-.227-.056-1.219-.17-2.239-.226-2.325-.142-3.232.283-3.345 1.53-.198 2.041 2.749 4.025 6.718 4.592 2.778.369 3.288.142 4.223-1.871 1.616-3.571.482-8.021-2.069-8.021-.539 0-1.105.226-1.417.567m2.097 1.53c.681.822.709 2.891 0 4.876l-.652 1.87-1.19-.17c-1.899-.255-4.252-1.275-5.216-2.239l-.878-.907 1.077-.085c.595-.057 1.814.113 2.749.397 1.559.482 1.673.482 2.013.028.198-.283.425-1.134.538-1.899.114-.794.255-1.616.34-1.842.227-.539.794-.539 1.219-.029M219.537 154.453c-3.231 1.162-5.555 4.706-6.604 9.949-.255 1.418-.51 2.58-.539 2.637-.028.028-1.077-.312-2.296-.823-1.247-.481-3.259-1.105-4.507-1.36l-2.267-.51.085-1.843c.141-2.494-.425-3.685-2.098-4.478-1.389-.681-2.324-.596-4.167.34-2.579 1.304-5.328 5.357-5.754 8.475-.17 1.191-.085 1.389.737 2.324 1.644 1.871 5.981 3.6 9.099 3.6 1.843 0 3.26-.765 3.912-2.126.397-.822.34-1.247-.425-3.571-.142-.425 0-.425 1.304-.199.822.142 2.522.596 3.798 1.021l2.296.765.198 4.11c.312 6.35 1.361 12.501 2.948 17.348.539 1.672 1.701 2.692 3.373 2.947 1.871.256 6.605-.311 10.261-1.247l3.203-.85 1.219 1.757c1.984 2.778 4.932 7.342 6.009 9.326 1.162 2.097 1.843 2.608 1.843 1.361 0-.993-2.126-5.159-4.706-9.241a226 226 0 0 1-2.182-3.458c-.142-.227.708-.794 2.721-1.729 1.616-.766 3.685-1.899 4.62-2.523 5.839-3.997 7.54-9.637 3.855-12.869-3.203-2.834-8.277-2.919-13.521-.226-1.218.623-2.239 1.077-2.295 1.048-.029-.056.056-.737.226-1.502.454-2.239.34-7.653-.198-10.176-1.361-6.434-5.584-9.892-10.148-8.277m4.167 2.693c2.693 1.672 4.025 5.896 3.798 12.047-.113 3.004-.283 3.826-1.19 6.661-.879 2.636-1.021 3.345-.766 3.883.539 1.247 1.701.907 3.969-1.134 2.409-2.154 3.798-3.033 6.236-3.855 3.373-1.133 6.859-.623 8.39 1.191 2.012 2.381-.425 6.604-5.471 9.552-1.842 1.077-6.037 2.977-6.122 2.806-.029-.056-1.021-1.19-2.24-2.522-2.125-2.41-3.458-3.317-4.308-2.977-.624.227-.255.851 2.126 3.515 1.077 1.191 1.984 2.325 1.984 2.495 0 .68-4.904 2.097-9.155 2.692-2.126.284-2.552.284-2.75-.056-.142-.199-.652-1.843-1.134-3.6-2.409-8.674-2.948-18.991-1.275-24.745 1.445-5.046 5.017-7.739 7.908-5.953m-22.506 3.061c.765.964.652 2.523-.255 3.657-.822 1.049-.766 1.417.51 2.551 1.19 1.077 2.183 2.948 1.927 3.628-.283.709-2.211 1.077-3.911.709-1.843-.369-5.329-1.956-5.896-2.636-.482-.567-.142-1.956 1.02-4.281.851-1.757 1.559-2.551 3.175-3.571 1.616-1.049 2.636-1.049 3.43-.057M170.755 154.736c-1.332.51-2.778 1.871-3.742 3.515-.51.879-.879 1.191-1.19 1.106-3.6-1.078-4.28-1.163-6.151-.851-3.543.624-6.151 3.118-7.994 7.738-.68 1.701-.963 2.098-1.389 2.041-.311-.056-1.474-.17-2.607-.255-1.899-.142-2.183-.085-3.884.737-2.919 1.446-4.677 4.139-4.903 7.54-.199 3.288 1.077 8.929 2.04 8.929.312 0 .426-.851.511-4.904.085-4.79.113-4.904.935-6.406 1.389-2.523 3.6-3.515 6.321-2.863l1.389.312.17 4.025c.255 5.669 1.162 9.326 3.09 12.245 2.126 3.203 4.166 4.309 6.094 3.345 1.672-.822 2.183-1.786 2.296-4.28.255-5.414-2.891-12.586-6.803-15.562-.595-.425-1.134-.992-1.219-1.247-.425-1.276 2.495-6.519 4.224-7.625 1.615-.964 4.195-1.077 5.839-.227l1.275.652-.085 3.26c-.198 5.697.879 11.196 2.977 15.562 1.53 3.203 3.656 5.555 5.3 5.839 3.146.595 4.876-2.58 4.167-7.682-.879-6.293-3.543-12.302-7.483-16.894l-1.389-1.644.623-1.275c.737-1.559 1.956-2.608 3.26-2.863 4.705-.879 12.954 11.792 14.74 22.704.623 3.855.963 5.018 1.332 4.791.397-.255.113-4.62-.51-8.192-1.474-8.56-7.398-18.821-12.16-21.117-1.673-.822-3.629-.992-5.074-.454m-1.332 12.359c1.615 2.296 3.543 6.434 4.28 9.212.793 2.948 1.048 7.171.482 7.908-.369.511-.454.482-1.588-.708-2.664-2.806-4.507-8.362-4.762-14.513-.113-2.296-.057-3.6.114-3.6.17 0 .822.765 1.474 1.701m-14.712 7.851c2.325 2.637 4.252 7.654 4.252 11.027 0 1.927-.198 2.381-.992 2.381-1.276 0-3.288-3.288-4.252-6.945-.567-2.097-.935-7.795-.482-7.795.17 0 .822.595 1.474 1.332M263.897 162.134c-.538.454-1.162 1.474-1.644 2.778a74 74 0 0 1-.85 2.126c-.028.056-.935-.425-1.984-1.049-2.126-1.276-3.487-1.474-4.932-.737-1.049.539-1.984 2.324-1.984 3.742.028 3.231 3.798 7.086 8.447 8.617 3.089.992 3.004.85 3.118 6.717l.085 5.018-1.729-1.9c-2.948-3.231-7.654-5.017-9.326-3.514-.652.595-.765 1.7-.227 2.636.595 1.077 2.778 3.203 3.855 3.741 1.134.596 4.394 1.588 6.066 1.871l1.105.17-.198 2.041c-.453 4.649-2.863 12.273-5.924 18.85-1.616 3.373-1.814 4.025-1.304 4.025 1.105 0 4.932-7.37 6.916-13.323 1.276-3.77 2.438-8.815 2.438-10.402 0-1.219.51-1.644 2.608-2.183 3.94-1.049 7.766-4.479 8.73-7.88.567-1.927-.737-3.6-2.494-3.146-1.786.425-4.706 2.891-7.342 6.179l-.907 1.134-.028-2.126a91 91 0 0 0-.255-4.535c-.227-2.381-.199-2.438.708-3.969 1.446-2.409 2.155-4.875 2.325-7.993.17-3.458-.227-5.017-1.644-6.491-1.276-1.332-2.381-1.446-3.629-.397m2.58 1.786c1.105 1.219 1.304 4.592.51 7.766-.765 2.948-1.899 5.159-2.523 4.904-.255-.113-1.303-.482-2.324-.85-2.778-.936-4.053-1.673-5.612-3.203-1.701-1.673-2.325-3.232-1.758-4.564.766-1.899 2.608-1.474 5.159 1.162 2.551 2.608 3.317 2.41 3.345-.793 0-1.248.595-3.232 1.304-4.28.482-.766 1.275-.851 1.899-.142m8.815 19.501c-.283 1.163-3.911 4.677-5.754 5.584-.85.426-1.587.709-1.672.624-.482-.482 3.798-5.357 5.867-6.69 1.418-.907 1.871-.765 1.559.482m-17.404 2.863c.822.397 2.098 1.332 2.806 2.041l1.304 1.276-.822.113c-1.7.198-4.932-1.587-5.924-3.316l-.51-.879h.794c.453 0 1.502.34 2.352.765M115.992 171.885c-1.758.794-3.685 3.43-4.621 6.321l-.34 1.077-1.644-.028c-2.154-.028-3.316.567-4.025 2.098-1.899 4.223 2.013 12.953 7.483 16.723 1.956 1.361 2.211 1.248 4.11-1.587 3.345-4.989 4.932-8.305 5.981-12.387 2.041-8.135-1.615-14.626-6.944-12.217m3.259 1.871c1.163.595 2.013 2.551 2.211 5.017.284 4.054-1.587 9.326-5.47 15.448-1.021 1.616-1.956 2.92-2.098 2.92-.595 0-3.685-3.827-4.734-5.839-3.316-6.349-2.891-11.197.879-9.751.51.198.765.539.879 1.332.567 3.373 2.267 6.038 3.855 6.038 1.02 0 1.672-.936 1.672-2.41-.028-1.502-.822-3.231-2.267-4.79l-1.191-1.304.312-1.304c.794-3.118 2.891-5.725 4.649-5.782.283 0 .878.198 1.303.425M1.108 172.367c-.85 1.077-1.559 3.458-1.559 5.3-.028 1.701.114 1.956 1.644 2.892.426.255.426.481.029 2.749-.227 1.332-.765 3.515-1.162 4.819-.737 2.296-3.118 7.313-3.487 7.313-.085-.029-.992-.652-2.012-1.446-3.09-2.352-4.564-2.948-7.37-2.948-2.721 0-3.968.482-5.64 2.183-1.872 1.871-2.24 4.337-1.05 6.888 2.325 5.045 8.816 5.102 14.542.198l1.984-1.729 1.502 1.814c2.976 3.685 5.272 8.164 6.52 12.756 1.643 5.952 1.729 6.179 2.069 5.839.453-.454-.142-4.337-1.248-8.022-1.02-3.401-3.373-8.107-5.357-10.714-2.806-3.657-2.664-2.92-1.134-5.584 1.644-2.863 2.722-6.038 3.288-9.808.256-1.587.51-3.175.567-3.515.085-.425.397-.708.907-.822 2.523-.538 2.693-1.105 1.361-4.648-1.474-3.94-3.061-5.216-4.394-3.515m-10.912 21.089c1.417.623 5.215 3.316 5.215 3.685 0 .113-.709.878-1.587 1.7-3.94 3.572-8.419 4.337-10.8 1.814-1.842-1.984-1.842-4.507 0-6.321 1.87-1.785 4.422-2.126 7.172-.878M319.086 181.409c-1.446.794-1.928 2.495-2.665 9.383-.935 8.872-1.332 10.374-2.749 10.544-.936.113-1.644-.255-6.179-3.09-7.342-4.563-9.525-4.96-11.027-1.984-.312.595-.964 3.232-1.445 5.868-1.134 6.236-1.815 8.617-2.523 8.617-.284 0-2.381-.907-4.677-2.013-5.102-2.466-6.86-2.778-8.305-1.559-1.106.935-1.503 2.069-2.778 8.334-1.134 5.612-1.219 6.661-.51 6.519.538-.113 1.077-1.587 2.664-7.455.652-2.352 1.361-4.62 1.587-5.074.369-.737.511-.793 1.588-.68.68.085 3.004 1.049 5.329 2.183 4.592 2.239 5.754 2.466 6.888 1.36.85-.85 1.672-3.146 2.267-6.292 1.701-9.043 1.843-9.496 2.806-9.496.936 0 4.054 1.587 8.192 4.195 5.102 3.175 6.775 3.543 8.447 1.757 1.106-1.19 1.587-3.288 2.409-10.516.397-3.543.879-6.916 1.106-7.511.737-2.154 2.069-1.559 8.022 3.515 4.79 4.081 5.754 4.677 5.754 3.571 0-.652-5.358-6.066-8.022-8.107-3.231-2.466-4.592-2.919-6.179-2.069M86.683 183.563c-2.466.993-4.535 4.366-4.762 7.795-.17 2.863.482 4.989 2.069 6.548 1.077 1.106 1.332 1.219 2.58 1.219 1.644 0 3.514-.85 4.535-2.069.425-.51 1.162-1.729 1.644-2.75.737-1.587.85-2.154.878-4.251 0-2.07-.113-2.637-.793-4.026-.992-2.012-2.126-2.777-4.054-2.749-.765 0-1.7.142-2.097.283m2.55 2.807c1.333.708 1.617 4.563.454 6.888-.822 1.644-2.352 2.891-3.231 2.636-.68-.227-1.616-2.325-1.87-4.224-.2-1.304.17-3.911.651-4.705.425-.652 3.118-1.049 3.997-.595M76.478 186.2c-.68.397-3.77 3.657-6.207 6.605-.652.822-1.304 1.502-1.446 1.502-.113 0-1.587-1.02-3.288-2.239-1.7-1.248-3.316-2.325-3.6-2.41-1.587-.396-.227 1.729 3.713 5.811l1.531 1.616-1.757 2.919c-3.657 6.18-5.414 10.573-4.366 10.942.567.198 1.474-.936 4.933-6.151 1.899-2.891 3.514-5.301 3.571-5.358s1.56.993 3.373 2.353c3.402 2.523 4.677 3.005 4.677 1.843 0-.369-1.19-1.786-3.146-3.799l-3.175-3.231 3.061-4.847c3.657-5.839 3.94-6.52 2.126-5.556M140.284 191.359c-.851.227-1.729.567-1.928.737-.68.567.029.822 1.361.538.68-.17 1.956-.312 2.806-.312 1.389 0 1.502.029 1.106.454-.256.227-4.082 1.899-8.504 3.685-9.297 3.77-13.577 5.754-14.088 6.633-.51.822-.17 1.644.737 1.899 1.304.368 6.18.17 11.622-.454 2.834-.311 5.584-.595 6.094-.595l.907.028-.85.454c-.454.255-6.463 2.891-13.322 5.867-13.408 5.811-15.023 6.633-15.534 7.739-.283.623-.226.793.369 1.275 1.105.879 5.159.567 14.456-1.134 4.28-.765 8.617-1.502 9.581-1.615 1.672-.199 1.814-.17 1.7.312-.056.283-1.757 1.842-3.77 3.458-7.341 5.867-8.447 7.086-7.681 8.588.765 1.559 2.693 1.758 6.831.681 3.231-.851 5.187-1.73 4.734-2.183-.227-.227-.794-.198-1.956.028-5.698 1.191-7.455 1.304-7.455.425 0-.226 1.757-1.842 3.912-3.571 7.058-5.782 8.815-7.937 7.426-9.071-1.105-.878-3.883-.566-17.375 1.9-5.443 1.02-8.221 1.247-7.654.68.17-.17 6.265-2.891 13.578-6.094 7.284-3.175 13.804-6.123 14.484-6.52 1.276-.737 1.843-1.871 1.247-2.466s-3.826-.538-10.431.199c-7.086.793-8.872.878-8.872.453 0-.397.936-.822 10.516-4.819 8.901-3.741 10.771-4.677 11.31-5.64.907-1.701-1.842-2.495-5.357-1.559M51.818 192.578c-2.097.652-4.223 2.579-5.414 4.903-1.956 3.827-.113 9.95 3.175 10.573 3.061.567 6.604-2.239 7.767-6.207 1.133-3.742-.227-8.022-2.892-9.128-.992-.425-1.559-.453-2.636-.141m1.928 3.458c.963.992 1.218 3.798.51 5.47-.539 1.333-2.013 2.892-3.033 3.26-.765.255-.935.198-1.53-.368-1.361-1.361-1.645-5.301-.568-7.597.539-1.105.88-1.247 2.892-1.332.878-.029 1.332.142 1.729.567M202.218 194.619c-.397.311-1.162 1.303-1.672 2.182l-.936 1.616-3.061.227c-3.571.283-4.308.51-4.734 1.445-.51 1.106-.113 1.871 1.985 3.997 1.105 1.077 2.012 2.154 2.012 2.353 0 .198-.34 1.502-.737 2.862-.425 1.389-.68 2.75-.567 3.005.255.709 1.304.425 3.997-1.105 1.247-.709 2.409-1.304 2.551-1.304.17 0 1.049.397 1.984.85 1.984.964 2.948 1.049 3.855.312.567-.454.68-.85.765-2.665l.114-2.154 1.757-1.105c2.268-1.503 3.232-2.381 3.458-3.317.341-1.417-1.417-2.381-4.336-2.409-1.73 0-2.58-.425-2.807-1.332-.311-1.276-1.133-3.062-1.672-3.572-.624-.623-1.049-.595-1.956.114m.964 3.826c0 .227-.198.397-.425.397-.482 0-.51-.057-.255-.68.198-.51.68-.34.68.283m-5.102 3.09c0 .368-.681 1.842-.851 1.842-.34 0-1.984-1.417-1.984-1.7 0-.142.284-.284.652-.341.595-.085 2.183.057 2.183.199m5.187.113c.737.284.879.595 1.19 2.296.171.964.142 1.021-1.36 1.843l-1.559.822-1.134-.766-1.162-.765.425-1.219c.765-2.211 1.843-2.863 3.6-2.211m5.697.709c-.17.453-1.474 1.077-1.814.879-.113-.057-.283-.397-.368-.709-.142-.51 0-.567 1.105-.567.907 0 1.191.085 1.077.397m-10.601 5.669c0 .085-.113.227-.283.312-.142.085-.284.028-.284-.114 0-.17.142-.311.284-.311.17 0 .283.056.283.113M40.168 196.262c-.68.425-2.07 1.446-3.061 2.268-1.644 1.332-1.871 1.417-2.41 1.077-2.947-1.928-4.421-2.75-4.847-2.75-.453 0-.453.029 0 .766.284.453 1.22 1.445 2.07 2.239l1.587 1.417-2.976 2.976c-3.26 3.232-7.087 7.71-7.795 9.071-.596 1.162-.199 1.587.963.992.454-.227 3.288-2.806 6.265-5.697l5.385-5.273 2.863 2.693c2.665 2.523 3.77 3.288 4.195 2.891.34-.368-.793-2.097-3.033-4.563-1.247-1.417-2.296-2.636-2.296-2.75s.907-1.219 2.013-2.409c1.956-2.154 3.061-3.77 2.58-3.77-.114 0-.794.369-1.503.822M164.802 199.437c-.425.34-1.19 1.474-1.729 2.523-.793 1.559-1.134 1.955-1.757 2.097-.425.085-1.531.284-2.409.454-1.73.34-2.778 1.219-2.778 2.324 0 .312.822 1.417 1.814 2.438l1.786 1.842-1.219 3.713c-1.446 4.281-1.559 5.273-.596 5.273.341 0 1.021-.369 1.474-.794 1.843-1.701 4.762-4.082 5.358-4.337.482-.227.992-.113 2.437.567 2.24 1.077 3.373 1.105 4.451.198.85-.737.992-1.899.566-4.421l-.198-1.276 1.531-1.19c1.927-1.474 2.551-2.381 2.324-3.345-.255-.964-.964-1.276-3.77-1.559-1.332-.142-2.438-.284-2.494-.34-.029-.057-.426-.822-.879-1.758-1.474-2.976-2.438-3.571-3.912-2.409m1.644 3.571c.199.567.114.652-.652.652h-.878l.482-.992c.481-1.02.652-.964 1.048.34m1.701 4.649c.454 1.134.454 1.219-.085 1.786-.907.963-2.466 1.672-3.203 1.474-.368-.085-.964-.425-1.361-.709l-.68-.538.482-1.588.51-1.587h3.884zm3.572-.935c0 .368-.341.623-.624.453s-.028-.68.368-.68c.142 0 .256.113.256.227m-10.772.623c0 .142-.198.284-.425.284s-.425-.142-.425-.284c0-.17.198-.283.425-.283s.425.113.425.283m8.787 5.556c0 .737-.311.85-1.19.368l-.595-.311.68-.511c.794-.623 1.105-.482 1.105.454m-7.228.085c.142.283-.992 1.247-1.218 1.049-.057-.085-.029-.397.085-.709.198-.624.822-.794 1.133-.34M100.969 203.859c-1.077 1.162-2.948 4.422-2.948 5.13 0 1.077.765.681 2.296-1.162.794-.964 1.559-1.871 1.701-2.012.141-.17 1.048.283 2.324 1.162 2.239 1.587 3.09 1.899 3.26 1.19.17-.907-4.28-5.074-5.443-5.074-.255 0-.793.341-1.19.766M83.48 210.237c-1.077 1.36-2.75 4.195-2.75 4.705 0 .199.227.34.539.34.51 0 1.615-1.077 3.174-3.061l.737-.964 2.098 1.588c3.061 2.324 4.45 2.097 2.324-.369-1.474-1.729-3.713-3.43-4.478-3.43-.454 0-.992.397-1.644 1.191M319.114 211.653c-3.203.34-3.741 1.417-1.19 2.409 1.814.681 6.179.709 7.228.029.85-.567.765-1.531-.199-1.956-1.133-.482-3.713-.68-5.839-.482M221.55 217.692c-.482.283-1.134 1.19-1.814 2.551-.567 1.162-1.078 2.125-1.134 2.125-.029 0-1.049.199-2.268.426-2.523.482-3.515 1.19-3.515 2.494 0 .652.397 1.191 1.758 2.494l1.757 1.701-1.332 4.054c-1.899 5.754-1.446 6.292 2.409 2.919 1.304-1.134 2.778-2.353 3.288-2.693l.907-.68 2.126.879c2.58 1.077 3.6 1.105 4.592.141.709-.708.737-.793.539-3.231l-.199-2.466 1.588-1.19c1.814-1.389 2.579-2.58 2.126-3.43-.482-.879-1.361-1.219-3.799-1.389l-2.267-.17-1.049-1.984c-1.049-1.956-1.984-2.977-2.636-2.977-.17.029-.652.199-1.077.426m1.445 3.543c.284.822.255.85-.538.85-.794 0-.822-.028-.539-.85.17-.482.425-.851.539-.851.113 0 .368.369.538.851m1.616 4.677c.624 1.502.51 1.785-1.162 2.834-1.474.936-1.616.992-2.324.595a6 6 0 0 1-1.304-.935c-.426-.51-.454-.68-.114-1.531.227-.538.482-1.19.567-1.474.142-.396.539-.481 2.041-.481 1.871 0 1.871 0 2.296.992m3.628-.397c-.085.142-.283.198-.425.085-.142-.085-.198-.284-.085-.425.085-.142.283-.199.425-.085.142.085.199.283.085.425m-10.743.255c.085.142-.028.283-.255.283-.255 0-.453-.141-.453-.283 0-.17.113-.284.255-.284.17 0 .368.114.453.284m8.901 5.867c.028.511-.964.454-1.361-.028-.283-.312-.198-.482.312-.85.595-.425.652-.425.85.028.085.283.199.68.199.85m-7.342-.056c0 .453-.963 1.077-1.219.793-.283-.255.341-1.218.794-1.218.227 0 .425.198.425.425M99.863 220.554c-.85.935-2.976 4.478-2.976 5.017 0 1.275 1.02.68 2.863-1.673 1.474-1.842 1.474-1.842 2.069-1.304 1.162 1.049 3.628 2.608 4.167 2.608.992 0 .567-.992-1.219-2.721-2.976-2.891-3.742-3.203-4.904-1.927M70.47 221.007c-.851.709-3.346 4.848-3.346 5.613 0 .142.256.283.567.283.34 0 1.106-.708 2.013-1.785.794-.964 1.53-1.843 1.644-1.956.113-.114 1.134.482 2.296 1.332 2.097 1.531 2.92 1.842 3.26 1.276.255-.426-1.616-2.637-3.317-3.997-1.474-1.134-2.352-1.361-3.118-.766M23.643 222.368c-.567.766-1.134 1.418-1.304 1.418-.142 0-.907-.255-1.7-.567-.794-.312-1.616-.567-1.843-.567-.709 0-.482.935.68 2.551l1.105 1.531-.708 1.048c-.936 1.418-.68 1.729 1.332 1.616l1.644-.085 1.19 1.361c1.758 1.984 2.637 1.672 2.041-.709-.17-.652-.255-1.247-.198-1.304.057-.085.737-.227 1.474-.368.737-.142 1.53-.454 1.786-.709.368-.397.368-.482-.142-.85-.312-.256-1.304-.822-2.24-1.304l-1.643-.822.198-1.191c.34-1.899.312-2.296-.17-2.409-.283-.057-.85.453-1.502 1.36m-2.155 2.835c0 .142-.056.283-.113.283-.085 0-.227-.141-.312-.283-.085-.17-.028-.284.114-.284.17 0 .311.114.311.284m2.552 1.701c0 .992-.539 1.105-1.248.311-.396-.453-.425-.68-.17-1.133.454-.879 1.418-.312 1.418.822m2.126-.227c.51.227.623.397.368.567-.595.368-.992.255-1.162-.34-.17-.652-.17-.681.794-.227M48.785 222.793c-4.989 1.077-9.439 5.612-8.277 8.418.624 1.531 2.296 1.928 5.216 1.191l.708-.17-.567 1.587c-.907 2.665-2.692 5.386-5.839 8.787-1.644 1.814-3.033 3.288-3.09 3.288s-.906-.17-1.898-.397c-1.588-.368-3.6-.567-5.103-.482-.85.057-.566.879.426 1.276.481.227 1.842.624 2.976.879 2.267.567 2.324.652 1.615 2.692-.623 1.73-.566 3.118.086 3.118.396 0 .822-.623 1.559-2.21.566-1.191 1.105-2.58 1.218-3.09.114-.624.539-1.134 1.276-1.672.624-.426 2.38-2.07 3.912-3.657 2.72-2.863 4.308-5.272 5.357-8.334l.34-.935 1.559 1.417c1.219 1.106 1.842 1.474 2.806 1.616 1.53.227 2.806-.34 3.572-1.644 1.332-2.183 0-6.973-2.835-10.261-.623-.709-1.134-1.417-1.134-1.587 0-.369-1.785-.284-3.883.17m3.6 1.899c1.644 1.757 3.288 7.115 2.636 8.532-.425.907-1.276 1.105-2.41.482-1.218-.624-2.097-1.928-2.324-3.43-.113-.68-.34-1.389-.51-1.587-.453-.539-1.757-.454-2.58.198-.991.794-3.032 1.701-3.826 1.701-1.956 0-.312-2.636 2.778-4.479 1.19-.709 4.535-1.984 5.3-2.012.199-.029.624.255.936.595M300.406 223.956c-.397 1.219-.397 1.19 1.191 14.938.623 5.556 1.077 10.204.992 10.289s-2.24-1.077-4.762-2.608c-4.819-2.891-7.852-4.336-9.042-4.365-1.361 0-1.985.737-1.985 2.296 0 1.644.511 3.033 3.742 10.176 2.664 5.868 3.09 7.2 2.494 7.767-.765.737-3.061 1.304-14.909 3.685-6.435 1.304-12.189 2.607-12.784 2.919-2.013.964-1.361 2.693 1.446 3.742.793.283 4.903 1.304 9.127 2.267 11.678 2.637 18.821 4.848 18.821 5.84 0 .226-.992 1.445-2.211 2.749-4.393 4.677-7.086 7.88-7.285 8.645-.141.596-.056.879.426 1.276.51.425.737.425 1.842.113.68-.226 4.167-1.927 7.71-3.798s6.774-3.458 7.171-3.543c1.162-.284 1.503.17 1.616 1.984.057.907.283 5.556.51 10.346.567 11.225.907 12.982 2.523 12.982 1.871 0 3.288-2.919 7.455-15.561 1.785-5.386 3.401-9.978 3.6-10.176.283-.312.566-.142 1.445.85 2.268 2.58 8.532 8.787 9.269 9.184 1.729.907 2.693.113 2.409-1.984-.113-.652-1.133-4.337-2.296-8.249-1.162-3.883-2.097-7.114-2.04-7.171s1.785.368 3.798.935c4.847 1.333 12.67 2.948 15.505 3.147 2.069.17 2.324.141 2.806-.397 1.105-1.247.567-1.871-8.56-10.375-3.317-3.089-5.981-5.782-5.924-5.952s1.644-1.219 3.514-2.296c4.677-2.721 7.37-4.734 7.937-5.953.454-.963.454-1.02-.113-1.587-.794-.822-4.337-1.19-8.901-.992-1.956.085-3.656.085-3.741-.028-.114-.085 1.304-1.729 3.146-3.6 5.301-5.471 9.779-10.658 10.771-12.557.794-1.474.312-2.636-1.077-2.636-.595 0-6.208 2.778-14.003 6.888-3.118 1.644-5.725 2.948-5.839 2.891-.113-.057-.141-3.033-.056-6.576.141-7.37-.085-8.674-1.389-8.816-.964-.113-1.162.199-4.507 6.463-2.863 5.414-3.997 7.37-4.309 7.37-.113 0-.68-.85-1.304-1.928-.595-1.048-1.955-3.429-3.004-5.3-3.317-5.839-7.03-11.735-8.192-13.039-.822-.964-1.304-1.276-1.899-1.276-.68 0-.85.171-1.134 1.021m3.09 3.033c1.786 2.693 6.349 10.403 8.617 14.569 1.871 3.487 2.948 4.904 3.77 4.904.963 0 2.551-2.239 5.158-7.313 1.474-2.806 2.835-5.357 3.062-5.641.34-.453.397-.425.453.482.029.539.057 3.855.085 7.37v6.378l.766.085c.567.056 3.373-1.248 10.119-4.734 5.13-2.664 9.467-4.847 9.637-4.847s.312.085.312.198c0 .539-7.086 8.532-10.998 12.472-2.381 2.381-4.308 4.479-4.308 4.706 0 .963.595 1.048 7.398 1.048 3.713 0 6.803.114 6.888.255.397.596-2.608 2.778-7.88 5.726-3.175 1.758-3.997 2.58-3.685 3.77.113.51 2.523 2.976 7.228 7.455 3.883 3.657 7.058 6.775 7.058 6.916 0 .652-3.827-.056-13.096-2.352-8.928-2.211-9.013-2.211-9.013-.341 0 .511.623 2.92 1.388 5.329 1.956 6.095 3.147 10.658 2.807 10.658-.426 0-3.288-2.806-6.69-6.576-3.515-3.912-4.082-4.337-4.875-3.912-.879.482-1.474 1.9-4.11 10.063-3.6 11.111-5.528 16.015-6.35 16.015-.538 0-.765-2.523-1.304-14.484-.226-5.244-.538-8.957-.737-9.411-.85-1.871-3.146-1.502-8.475 1.361-5.726 3.061-8.532 4.45-8.702 4.28-.198-.17.737-1.276 4.706-5.499 3.429-3.685 4.195-4.847 3.741-5.698-1.049-1.927-6.378-3.713-21.571-7.256-6.009-1.389-8.22-2.041-8.22-2.409 0-.312.085-.312 11.905-2.693 11.622-2.325 13.521-2.778 15.08-3.572 2.324-1.19 2.154-2.437-1.559-10.686-2.891-6.349-3.742-8.645-3.487-9.269.256-.708 2.41.284 8.617 3.997 5.471 3.288 6.633 3.826 6.945 3.288.085-.113.028-.907-.113-1.757-.454-2.92-2.353-23.442-2.268-24.604.057-.595.255-.397 1.701 1.729M252.219 223.728c0 .284.454 1.815.992 3.43 1.304 3.798 1.276 6.293-.113 7.994l-.51.623-.68-1.247c-1.276-2.296-3.402-3.118-5.273-1.956-1.218.737-1.587 1.531-1.417 3.061.255 2.211 1.984 3.827 4.45 4.167l1.418.199v1.729c-.029 5.584-3.232 11.848-7.058 13.804-.681.34-1.276.567-1.333.482-.056-.057.142-1.247.482-2.636 1.446-6.123-.907-10.516-4.478-8.334-1.786 1.077-3.005 3.827-2.948 6.605.056 2.466.538 3.769 1.956 5.215 1.445 1.502 1.445 1.502-.794 4.28-2.636 3.288-6.945 6.038-9.496 6.066-.822.028-1.474-.142-1.729-.397-.397-.397-.283-.595 1.134-1.927 2.041-1.928 3.345-4.507 3.401-6.633 0-1.729-.34-2.324-1.757-2.92-1.956-.822-4.365.681-5.952 3.685-.681 1.304-.766 1.786-.766 4.28l-.028 2.807-1.106.396c-1.7.624-5.073.397-6.661-.425-2.636-1.389-4.393-3.741-4.705-6.292-.085-.907.028-2.892.283-4.791.255-1.785.397-3.288.312-3.373-.737-.737-2.126 4.025-2.126 7.313 0 3.033.567 4.536 2.523 6.491 3.061 3.147 6.548 4.054 10.63 2.863 1.729-.538 2.324-.595 2.692-.34 1.474 1.049 2.24 1.304 3.912 1.304 3.685-.028 9.099-3.77 12.302-8.532 1.02-1.474 1.615-2.098 2.182-2.239 3.147-.681 5.301-2.069 7.257-4.677 2.664-3.543 3.798-6.945 4.053-12.019.142-3.089.227-3.486.879-4.251 1.842-2.211 2.523-5.358 1.729-8.221-.369-1.332-2.098-4.903-2.721-5.612-.595-.624-.936-.624-.936.028m-2.919 11.168c1.36 1.503 1.502 2.778.368 2.778-.85 0-2.267-1.502-2.267-2.352 0-1.162 1.02-1.361 1.899-.426m-8.164 12.586c.624 1.19.511 4.422-.226 6.463-.312.907-.652 1.729-.737 1.842-.34.312-1.134-.454-1.758-1.672-1.105-2.126-.737-4.904.822-6.69.992-1.134 1.332-1.105 1.899.057m-13.18 9.637c.708.255.567 2.069-.284 3.742-.652 1.304-2.948 3.741-3.514 3.741-.256 0-.567-1.02-.567-1.87 0-1.418.935-3.685 1.984-4.706 1.049-1.077 1.502-1.247 2.381-.907M145.783 224.041c-2.438 1.105-3.402 3.118-3.373 6.973.056 4.592 1.672 7.88 5.13 10.516 1.842 1.389 2.183 1.531 3.458 1.531 1.758 0 5.386-1.276 7.994-2.835 4.308-2.551 6.632-6.009 6.632-9.836 0-2.267-.425-3.118-2.126-4.28-1.785-1.19-4.11-.765-7.058 1.304l-1.814 1.275-.595-.822c-2.806-3.911-5.414-5.13-8.248-3.826m3.571 2.948c.51.34 1.446 1.332 2.013 2.182 2.324 3.345 2.749 3.487 5.385 1.446 2.268-1.729 3.373-2.296 4.45-2.296 1.843 0 2.24 2.183.908 4.96-1.078 2.268-2.863 3.884-6.265 5.726-1.275.68-5.782 2.636-6.094 2.636-.057 0-.624-.538-1.247-1.219-2.296-2.409-3.43-5.357-3.43-9.07 0-2.438.454-3.855 1.446-4.564.907-.623 1.7-.567 2.834.199M183.907 226.79c-.482.567-1.162 1.559-1.474 2.239l-.595 1.191-3.203.141c-3.515.17-4.507.539-4.819 1.786-.227.907.539 2.098 2.665 4.195l1.672 1.672-.822 2.807c-1.276 4.251-.964 4.45 3.203 2.154l2.693-1.502 1.701.793c2.579 1.219 3.344 1.276 4.195.425.652-.652.737-.963.737-2.692v-1.985l1.785-1.133c2.693-1.786 3.6-2.721 3.6-3.714 0-1.247-.964-1.757-3.77-2.04-1.275-.114-2.522-.284-2.778-.397-.226-.085-.651-.936-.935-1.843-.964-3.231-2.239-3.911-3.855-2.097m1.417 3.089a.436.436 0 0 1-.425.426c-.255 0-.34-.171-.255-.426.113-.226.284-.425.425-.425s.255.199.255.425m-5.215 3.373c.198.539-.369 1.588-.851 1.588-.198 0-.708-.34-1.133-.766-.567-.566-.681-.793-.397-.992.623-.368 2.211-.255 2.381.17m5.726.114c.368.255.907 1.842.907 2.749 0 .397-.454.794-1.474 1.333l-1.474.793-1.077-.708c-.596-.397-1.078-.907-1.078-1.134 0-.255.312-1.077.709-1.843.68-1.36.765-1.417 1.928-1.417.652 0 1.36.113 1.559.227m5.243.312c.482.085.142.623-.68 1.048-.737.369-.935.397-1.134.057-.68-1.02-.028-1.417 1.814-1.105m-3.769 6.094c0 .085-.114.227-.284.312-.142.085-.283.028-.283-.114 0-.17.141-.312.283-.312.17 0 .284.057.284.114M84.217 227.527c-.794.879-3.203 4.79-3.203 5.215 0 1.248 1.389.341 3.316-2.182l.992-1.332 1.9 1.417c2.494 1.899 3.713 2.324 3.713 1.332 0-.425-2.778-3.316-4.082-4.252-1.332-.992-1.871-1.02-2.636-.198M15.933 227.47c-.765.312-1.105 1.105-.538 1.304.481.198 2.154-.709 2.352-1.247.113-.397-.907-.425-1.814-.057M9.385 228.803c-.652.255-.397.935.312.935 1.276 0 2.438-.368 2.438-.737 0-.283-.369-.397-1.19-.368-.681 0-1.39.085-1.56.17M266.987 229.143c-.68.425.085 1.048 2.041 1.7 5.329 1.701 9.524 2.466 9.949 1.758.312-.51-.198-1.191-1.332-1.786-.681-.34-2.863-.85-5.272-1.247-4.677-.766-4.847-.766-5.386-.425M2.554 230.163c-.539.227-.907.567-.822.765.227.681 2.976-.028 3.26-.85.141-.482-1.248-.425-2.438.085M100.09 233.564c-.794.539-3.487 4.904-3.487 5.584 0 .822.823.596 1.815-.566.51-.567 1.303-1.474 1.785-2.013l.822-.935 2.24 1.587c2.126 1.559 2.948 1.842 3.174 1.105.227-.652-4.507-5.187-5.414-5.187-.17 0-.595.199-.935.425"/><path stroke="#a2d518" stroke-width="8.371" d="M314.582 92.523v93.579h-43.694v43.692h-49.886V95.904l3.382-3.382zM205.491 92.523v93.579h-21.222l2.657 5.903 17.005 37.789h-92.019V95.904l3.382-3.382zM96.928 92.523v93.579H53.233v43.692H3.348V95.904l3.382-3.382z"/></g></g></g><defs><clipPath id="a"><path fill="#fff" d="M0 0h357v357H0z"/></clipPath><clipPath id="b"><path fill="#fff" d="M-.09 88.336h355.78v179.983H-.09z"/></clipPath><filter id="c" width="708.349" height="531.262" x="-157.583" y="-113.381" color-interpolation-filters="sRGB" filterUnits="userSpaceOnUse"><feFlood flood-opacity="0" result="BackgroundImageFix"/><feColorMatrix in="SourceAlpha" result="hardAlpha" values="0 0 0 0 0 0 0 0 0 0 0 0 0 0 0 0 0 0 127 0"/><feOffset dy=".85"/><feGaussianBlur stdDeviation="26.574"/><feComposite in2="hardAlpha" operator="out"/><feColorMatrix values="0 0 0 0 0 0 0 0 0 0 0 0 0 0 0 0 0 0 0.07 0"/><feBlend in2="BackgroundImageFix" result="effect1_dropShadow_296_8200"/><feBlend in="SourceGraphic" in2="effect1_dropShadow_296_8200" result="shape"/></filter></defs></svg>